HIERARCHY
ROOT Hips
{
  OFFSET -249.206 91.1794 1438.34
  CHANNELS 6 Xposition Yposition Zposition Zrotation Xrotation Yrotation
  JOINT RightUpLeg
  {
    OFFSET -9.25736 -1.60276 -0.0141489
    CHANNELS 3 Zrotation Xrotation Yrotation
    JOINT RightLeg
    {
      OFFSET -0.0261462 -41.8834 0.119595
      CHANNELS 3 Zrotation Xrotation Yrotation
      JOINT RightFoot
      {
        OFFSET 0.0435549 -41.8447 0.0656632
        CHANNELS 3 Zrotation Xrotation Yrotation
        End Site
        {
          OFFSET 0 -7.69 17.5
        }
      }
    }
  }
  JOINT LeftUpLeg
  {
    OFFSET 9.28118 -1.60848 -0.0340219
    CHANNELS 3 Zrotation Xrotation Yrotation
    JOINT LeftLeg
    {
      OFFSET 0.0891769 -41.8706 -0.030324
      CHANNELS 3 Zrotation Xrotation Yrotation
      JOINT LeftFoot
      {
        OFFSET 0.081882 -41.8642 0.0552393
        CHANNELS 3 Zrotation Xrotation Yrotation
        End Site
        {
          OFFSET 0 -7.69 17.5
        }
      }
    }
  }
  JOINT Spine
  {
    OFFSET 0.0245383 14.3097 -0.0107096
    CHANNELS 3 Zrotation Xrotation Yrotation
    JOINT Spine1
    {
      OFFSET 0.0164624 9.7093 -0.0166642
      CHANNELS 3 Zrotation Xrotation Yrotation
      JOINT Spine2
      {
        OFFSET 0.016022 10.1176 -0.00578374
        CHANNELS 3 Zrotation Xrotation Yrotation
        JOINT Spine3
        {
          OFFSET 0.0307457 9.72075 -0.0178261
          CHANNELS 3 Zrotation Xrotation Yrotation
          JOINT Neck
          {
            OFFSET 0.00216936 10.3802 -0.0218255
            CHANNELS 3 Zrotation Xrotation Yrotation
            JOINT Head
            {
              OFFSET -0.0128028 9.4758 0.00643739
              CHANNELS 3 Zrotation Xrotation Yrotation
              End Site
              {
                OFFSET 0 15.95 0
              }
            }
          }
          JOINT RightShoulder
          {
            OFFSET -3.17914 6.91994 0.0145926
            CHANNELS 3 Zrotation Xrotation Yrotation
            JOINT RightArm
            {
              OFFSET -12.7712 -0.0103024 0.02298
              CHANNELS 3 Zrotation Xrotation Yrotation
              JOINT RightForeArm
              {
                OFFSET -26.5447 0.018023 0.00848051
                CHANNELS 3 Zrotation Xrotation Yrotation
                JOINT RightHand
                {
                  OFFSET -26.0143 -0.00700762 -0.0357054
                  CHANNELS 3 Zrotation Xrotation Yrotation
                  JOINT RightHandThumb1
                  {
                    OFFSET -2.48905 0.190105 3.12053
                    CHANNELS 3 Zrotation Xrotation Yrotation
                    JOINT RightHandThumb2
                    {
                      OFFSET -3.68274 0 0
                      CHANNELS 3 Zrotation Xrotation Yrotation
                      JOINT RightHandThumb3
                      {
                        OFFSET -2.55832 0 0
                        CHANNELS 3 Zrotation Xrotation Yrotation
                        End Site
                        {
                          OFFSET -2.194 0 0
                        }
                      }
                    }
                  }
                  JOINT RightInHandIndex
                  {
                    OFFSET -3.22368 0.508421 1.97842
                    CHANNELS 3 Zrotation Xrotation Yrotation
                    JOINT RightHandIndex1
                    {
                      OFFSET -5.21684 -0.091368 0.999158
                      CHANNELS 3 Zrotation Xrotation Yrotation
                      JOINT RightHandIndex2
                      {
                        OFFSET -3.61937 0 0
                        CHANNELS 3 Zrotation Xrotation Yrotation
                        JOINT RightHandIndex3
                        {
                          OFFSET -2.0521 0 0
                          CHANNELS 3 Zrotation Xrotation Yrotation
                          End Site
                          {
                            OFFSET -1.805 0 0
                          }
                        }
                      }
                    }
                  }
                  JOINT RightInHandMiddle
                  {
                    OFFSET -3.38211 0.517263 0.756737
                    CHANNELS 3 Zrotation Xrotation Yrotation
                    JOINT RightHandMiddle1
                    {
                      OFFSET -5.17411 -0.084 0.313895
                      CHANNELS 3 Zrotation Xrotation Yrotation
                      JOINT RightHandMiddle2
                      {
                        OFFSET -3.94947 0 0
                        CHANNELS 3 Zrotation Xrotation Yrotation
                        JOINT RightHandMiddle3
                        {
                          OFFSET -2.47579 0 0
                          CHANNELS 3 Zrotation Xrotation Yrotation
                          End Site
                          {
                            OFFSET -1.975 0 0
                          }
                        }
                      }
                    }
                  }
                  JOINT RightInHandRing
                  {
                    OFFSET -3.36516 0.537895 -0.128947
                    CHANNELS 3 Zrotation Xrotation Yrotation
                    JOINT RightHandRing1
                    {
                      OFFSET -4.63474 -0.022105 -0.478947
                      CHANNELS 3 Zrotation Xrotation Yrotation
                      JOINT RightHandRing2
                      {
                        OFFSET -3.44238 0 0
                        CHANNELS 3 Zrotation Xrotation Yrotation
                        JOINT RightHandRing3
                        {
                          OFFSET -2.3881 0 0
                          CHANNELS 3 Zrotation Xrotation Yrotation
                          End Site
                          {
                            OFFSET -1.857 0 0
                          }
                        }
                      }
                    }
                  }
                  JOINT RightInHandPinky
                  {
                    OFFSET -3.16105 0.469368 -1.20179
                    CHANNELS 3 Zrotation Xrotation Yrotation
                    JOINT RightHandPinky1
                    {
                      OFFSET -4.14105 -0.022105 -1.09053
                      CHANNELS 3 Zrotation Xrotation Yrotation
                      JOINT RightHandPinky2
                      {
                        OFFSET -2.75653 0 0
                        CHANNELS 3 Zrotation Xrotation Yrotation
                        JOINT RightHandPinky3
                        {
                          OFFSET -1.74189 0 0
                          CHANNELS 3 Zrotation Xrotation Yrotation
                          End Site
                          {
                            OFFSET -1.645 0 0
                          }
                        }
                      }
                    }
                  }
                }
              }
            }
          }
          JOINT LeftShoulder
          {
            OFFSET 3.19804 6.89317 -0.0298735
            CHANNELS 3 Zrotation Xrotation Yrotation
            JOINT LeftArm
            {
              OFFSET 12.7533 -0.0579339 -0.0756479
              CHANNELS 3 Zrotation Xrotation Yrotation
              JOINT LeftForeArm
              {
                OFFSET 26.4959 -0.0363035 -0.0575083
                CHANNELS 3 Zrotation Xrotation Yrotation
                JOINT LeftHand
                {
                  OFFSET 26.0049 0.0988007 0.0466122
                  CHANNELS 3 Zrotation Xrotation Yrotation
                  JOINT LeftHandThumb1
                  {
                    OFFSET 2.48905 0.190105 3.12053
                    CHANNELS 3 Zrotation Xrotation Yrotation
                    JOINT LeftHandThumb2
                    {
                      OFFSET 3.68274 0 0
                      CHANNELS 3 Zrotation Xrotation Yrotation
                      JOINT LeftHandThumb3
                      {
                        OFFSET 2.55832 0 0
                        CHANNELS 3 Zrotation Xrotation Yrotation
                        End Site
                        {
                          OFFSET 2.194 0 0
                        }
                      }
                    }
                  }
                  JOINT LeftInHandIndex
                  {
                    OFFSET 3.22368 0.508421 1.97842
                    CHANNELS 3 Zrotation Xrotation Yrotation
                    JOINT LeftHandIndex1
                    {
                      OFFSET 5.21684 -0.091368 0.999158
                      CHANNELS 3 Zrotation Xrotation Yrotation
                      JOINT LeftHandIndex2
                      {
                        OFFSET 3.61937 0 0
                        CHANNELS 3 Zrotation Xrotation Yrotation
                        JOINT LeftHandIndex3
                        {
                          OFFSET 2.0521 0 0
                          CHANNELS 3 Zrotation Xrotation Yrotation
                          End Site
                          {
                            OFFSET 1.805 0 0
                          }
                        }
                      }
                    }
                  }
                  JOINT LeftInHandMiddle
                  {
                    OFFSET 3.38211 0.517263 0.756737
                    CHANNELS 3 Zrotation Xrotation Yrotation
                    JOINT LeftHandMiddle1
                    {
                      OFFSET 5.17411 -0.084 0.313895
                      CHANNELS 3 Zrotation Xrotation Yrotation
                      JOINT LeftHandMiddle2
                      {
                        OFFSET 3.94947 0 0
                        CHANNELS 3 Zrotation Xrotation Yrotation
                        JOINT LeftHandMiddle3
                        {
                          OFFSET 2.47579 0 0
                          CHANNELS 3 Zrotation Xrotation Yrotation
                          End Site
                          {
                            OFFSET 1.975 0 0
                          }
                        }
                      }
                    }
                  }
                  JOINT LeftInHandRing
                  {
                    OFFSET 3.36516 0.537895 -0.128947
                    CHANNELS 3 Zrotation Xrotation Yrotation
                    JOINT LeftHandRing1
                    {
                      OFFSET 4.63474 -0.022105 -0.478947
                      CHANNELS 3 Zrotation Xrotation Yrotation
                      JOINT LeftHandRing2
                      {
                        OFFSET 3.44238 0 0
                        CHANNELS 3 Zrotation Xrotation Yrotation
                        JOINT LeftHandRing3
                        {
                          OFFSET 2.3881 0 0
                          CHANNELS 3 Zrotation Xrotation Yrotation
                          End Site
                          {
                            OFFSET 1.857 0 0
                          }
                        }
                      }
                    }
                  }
                  JOINT LeftInHandPinky
                  {
                    OFFSET 3.16105 0.469368 -1.20179
                    CHANNELS 3 Zrotation Xrotation Yrotation
                    JOINT LeftHandPinky1
                    {
                      OFFSET 4.14105 -0.022105 -1.09053
                      CHANNELS 3 Zrotation Xrotation Yrotation
                      JOINT LeftHandPinky2
                      {
                        OFFSET 2.75653 0 0
                        CHANNELS 3 Zrotation Xrotation Yrotation
                        JOINT LeftHandPinky3
                        {
                          OFFSET 1.74189 0 0
                          CHANNELS 3 Zrotation Xrotation Yrotation
                          End Site
                          {
                            OFFSET 1.645 0 0
                          }
                        }
                      }
                    }
                  }
                }
              }
            }
          }
        }
      }
    }
  }
}
MOTION
Frames:	4
Frame Time:	0.00833333
-240.066 85.9633 1451.04 0.955143 -17.1755 145.313 27.2717 -35.5831 25.9804 -14.1419 27.9092 21.2284 11.9889 -0.226972 36.3663 31.7144 -10.7013 22.7317 -6.49179 49.9541 5.66144 0.27426 -10.7365 26.9588 -6.22887 5.79272 -18.0739 -1.73067 1.00955 -4.76562 -2.77911 1.50471 -7.73113 -0.82898 -0.610187 2.81372 -3.90139 -4.60582 46.1595 -13.7877 5.6821 28.3489 -1.90522 -11.5184 -0.520898 45.3439 -49.9832 21.7093 28.2208 -17.9737 108.927 -8.68573 -14.7096 -0.105562 28.184 10.7294 19.1592 -9.95174e-15 -1.49089e-15 -10 -6.59944e-15 -7.95139e-16 -10 -1.37935e-33 -3.97569e-16 -1.98785e-16 19.9818 0.871897 2.3964 24 1.98785e-15 -1.59028e-15 20 -3.37934e-15 -1.98785e-15 -1.37935e-33 -3.97569e-16 -1.98785e-16 20 7.95139e-16 -7.95139e-16 24 0 -7.95139e-15 20 -9.93923e-17 -5.1684e-15 -1.37935e-33 -3.97569e-16 -1.98785e-16 19.9748 -1.02565 -2.81938 24 -1.98785e-15 1.59028e-15 20 1.98785e-16 -5.56597e-15 -1.37935e-33 -3.97569e-16 -1.98785e-16 19.7815 -3.00948 -8.30515 24 -3.57812e-15 1.59028e-15 20 -3.18055e-15 7.95139e-16 -0.670962 -10.7117 -10.9064 19.5097 15.8926 -145.064 29.7933 -22.484 -25.1972 -15.6018 -39.8455 -30.4496 -28.184 10.7294 -19.1592 9.68886e-15 0 10 -9.40845e-15 -1.59028e-15 10 0 0 -3.18055e-15 -19.9818 0.871897 -2.3964 -24 5.96354e-16 -9.54166e-15 -20 -2.38542e-15 -1.90833e-14 0 0 -3.18055e-15 -20 7.95139e-15 -0 -24 1.31198e-14 -1.90833e-14 -20 -6.36111e-15 -0 0 0 -3.18055e-15 -19.9748 -1.02565 2.81938 -24 2.98177e-16 -9.54166e-15 -20 1.59028e-15 -1.27222e-14 0 0 -3.18055e-15 -19.7815 -3.00948 8.30515 -24 -1.26725e-15 -6.36111e-15 -20 3.18055e-15 -0 
-240.265 85.9801 1451.08 1.06364 -17.395 145.976 27.1611 -35.8758 26.0159 -14.1334 27.9043 21.313 11.9529 -0.468446 35.6076 31.7871 -11.2439 22.9682 -5.99177 50.0867 5.0389 0.425259 -11.2633 26.672 -6.11275 5.90708 -18.1206 -1.70508 1.04746 -4.78084 -2.73494 1.57143 -7.75812 -0.831823 -0.548024 2.79559 -3.91249 -4.64336 46.0689 -13.7363 5.59836 28.2772 -1.87995 -11.5699 -0.469637 44.9821 -50.4972 21.1851 28.9849 -17.4621 108.352 -8.48508 -14.8227 0.0852288 28.184 10.7294 19.1592 3.54508e-15 1.78906e-15 -10 2.38839e-15 -4.77083e-15 -10 1.59028e-15 -3.97569e-16 1.49089e-16 19.9818 0.871897 2.3964 24 1.39149e-15 1.98785e-16 20 9.93923e-17 7.95139e-16 1.59028e-15 -3.97569e-16 1.49089e-16 20 1.98785e-15 5.36719e-15 24 -1.59028e-15 3.57812e-15 20 -4.96962e-16 1.19271e-15 1.59028e-15 -3.97569e-16 1.49089e-16 19.9748 -1.02565 -2.81938 24 3.97569e-16 1.19271e-15 20 -2.28602e-15 7.15625e-15 1.59028e-15 -3.97569e-16 1.49089e-16 19.7815 -3.00948 -8.30515 24 -1.98785e-15 1.19271e-15 20 -1.98785e-15 7.95139e-16 -0.607956 -10.8306 -10.8118 19.2647 16.2272 -144.918 29.5304 -22.4633 -24.8603 -16.6051 -39.4252 -31.4518 -28.184 10.7294 -19.1592 -3.79044e-15 3.18055e-15 10 -9.12804e-15 -3.18055e-15 10 -5.29669e-31 3.18055e-15 9.54166e-15 -19.9818 0.871897 -2.3964 -24 -4.37326e-15 3.18055e-15 -20 1.59028e-15 -0 -5.29669e-31 3.18055e-15 9.54166e-15 -20 -4.77083e-15 -3.18055e-15 -24 -4.37326e-15 6.36111e-15 -20 -3.18055e-15 1.90833e-14 -5.29669e-31 3.18055e-15 9.54166e-15 -19.9748 -1.02565 2.81938 -24 -3.18055e-15 -1.27222e-14 -20 7.95139e-15 2.22639e-14 -5.29669e-31 3.18055e-15 9.54166e-15 -19.7815 -3.00948 8.30515 -24 -6.93262e-15 -0 -20 -1.90833e-14 1.59028e-14 
-240.474 85.9872 1451.12 1.18459 -17.6129 146.693 27.0084 -36.1805 25.9904 -14.1357 27.9083 21.3944 11.6279 -0.917666 34.7092 31.8238 -11.8412 23.2291 -5.36583 50.239 4.31531 0.572818 -11.7962 26.3466 -5.98366 6.03551 -18.1669 -1.67663 1.0901 -4.79625 -2.68582 1.6465 -7.7858 -0.831156 -0.555228 2.7948 -3.92807 -4.61291 45.9548 -13.6862 5.50268 28.1975 -1.87479 -11.5602 -0.450043 44.5862 -51.0366 20.6125 29.7891 -16.9329 107.732 -8.32443 -14.9548 0.27916 28.184 10.7294 19.1592 -1.4371e-15 -8.15017e-15 -10 5.1273e-15 -7.55382e-15 -10 -3.18055e-15 -3.97569e-16 -0 19.9818 0.871897 2.3964 24 -1.39149e-15 -2.5842e-15 20 -4.47266e-16 -7.35503e-15 -3.18055e-15 -3.97569e-16 -0 20 1.39149e-15 2.98177e-16 24 -3.97569e-16 -3.37934e-15 20 -2.98177e-16 -9.14409e-15 -3.18055e-15 -3.97569e-16 -0 19.9748 -1.02565 -2.81938 24 9.93923e-16 -1.98785e-15 20 -1.98785e-16 -9.54166e-15 -3.18055e-15 -3.97569e-16 -0 19.7815 -3.00948 -8.30515 24 2.78299e-15 -2.78299e-15 20 -2.78299e-15 -1.19271e-14 -0.56252 -10.8804 -10.8477 18.9886 16.6351 -144.654 29.2831 -22.4128 -24.4863 -14.456 -40.6866 -26.199 -28.184 10.7294 -19.1592 -0 0 10 9.12804e-15 3.18055e-15 10 -6.36111e-15 -9.54166e-15 3.18055e-15 -19.9818 0.871897 -2.3964 -24 -4.77083e-15 -6.36111e-15 -20 -2.38542e-15 3.18055e-15 -6.36111e-15 -9.54166e-15 3.18055e-15 -20 -4.77083e-15 -6.36111e-15 -24 -1.13307e-14 3.18055e-15 -20 6.36111e-15 -6.36111e-15 -6.36111e-15 -9.54166e-15 3.18055e-15 -19.9748 -1.02565 2.81938 -24 1.37161e-14 -6.36111e-15 -20 -5.56597e-15 -1.59028e-14 -6.36111e-15 -9.54166e-15 3.18055e-15 -19.7815 -3.00948 8.30515 -24 -2.78299e-15 -1.59028e-14 -20 3.18055e-15 1.59028e-14 
-240.691 86.0027 1451.16 1.32246 -17.8267 147.464 26.8165 -36.4942 25.904 -14.1455 27.9006 21.4468 11.4635 -1.32516 33.8769 31.886 -12.469 23.5405 -4.64531 50.3764 3.47257 0.740672 -12.3027 25.9692 -5.83855 6.1837 -18.2018 -1.64461 1.13953 -4.80912 -2.63054 1.73356 -7.81028 -0.830858 -0.55645 2.79169 -3.94531 -4.58629 45.8145 -13.6271 5.38914 28.1017 -1.88127 -11.5378 -0.43464 44.0663 -51.7064 19.9323 30.7927 -16.3075 106.993 -8.22484 -15.0354 0.558018 28.184 10.7294 19.1592 6.03863e-15 -2.38542e-15 -10 -3.43993e-15 -1.19271e-15 -10 -1.59028e-15 -1.98785e-16 -3.23025e-16 19.9818 0.871897 2.3964 24 -7.20594e-15 -3.32964e-15 20 -5.54112e-15 -1.94312e-14 -1.59028e-15 -1.98785e-16 -3.23025e-16 20 -2.5842e-15 -2.5842e-15 24 -1.78906e-15 -1.35174e-14 20 -3.18055e-15 -1.89839e-14 -1.59028e-15 -1.98785e-16 -3.23025e-16 19.9748 -1.02565 -2.81938 24 -5.56597e-15 -2.98177e-15 20 -4.77083e-15 -2.66371e-14 -1.59028e-15 -1.98785e-16 -3.23025e-16 19.7815 -3.00948 -8.30515 24 -4.77083e-15 -5.56597e-15 20 -6.75868e-15 -2.0276e-14 -0.54057 -10.9178 -10.8613 18.7242 17.0334 -144.396 29.0453 -22.3482 -24.0713 -12.9636 -41.3515 -22.4333 -28.184 10.7294 -19.1592 9.86349e-16 1.27222e-14 10 -4.35126e-15 6.36111e-15 10 -8.82781e-32 -3.18055e-15 -1.59028e-15 -19.9818 0.871897 -2.3964 -24 -5.1684e-15 6.36111e-15 -20 -7.95139e-16 2.22639e-14 -8.82781e-32 -3.18055e-15 -1.59028e-15 -20 -6.36111e-15 -0 -24 1.98785e-15 9.54166e-15 -20 3.18055e-15 1.59028e-14 -8.82781e-32 -3.18055e-15 -1.59028e-15 -19.9748 -1.02565 2.81938 -24 -3.37934e-15 3.18055e-15 -20 -3.18055e-15 1.90833e-14 -8.82781e-32 -3.18055e-15 -1.59028e-15 -19.7815 -3.00948 8.30515 -24 -6.65929e-15 -6.36111e-15 -20 -2.38542e-15 5.08889e-14 
